# Blender v3.2.0 OBJ File: ''
# www.blender.org
mtllib shiittcan.mtl
o Cylinder
v 0.000000 -1.822660 -0.911184
v 0.000000 1.822660 -0.874659
v 0.177763 -1.822660 -0.893676
v 0.170638 1.822660 -0.857853
v 0.348695 -1.822660 -0.841824
v 0.334718 1.822660 -0.808080
v 0.506227 -1.822660 -0.757622
v 0.485935 1.822660 -0.727252
v 0.644304 -1.822660 -0.644304
v 0.618477 1.822660 -0.618477
v 0.757622 -1.822660 -0.506227
v 0.727252 1.822660 -0.485934
v 0.841824 -1.822660 -0.348695
v 0.808080 1.822660 -0.334718
v 0.893676 -1.822660 -0.177763
v 0.857853 1.822660 -0.170638
v 0.911184 -1.822660 0.000000
v 0.874659 1.822660 0.000000
v 0.893676 -1.822660 0.177763
v 0.857853 1.822660 0.170638
v 0.841824 -1.822660 0.348695
v 0.808080 1.822660 0.334717
v 0.757622 -1.822660 0.506227
v 0.727252 1.822660 0.485934
v 0.644304 -1.822660 0.644304
v 0.618477 1.822660 0.618477
v 0.506227 -1.822660 0.757622
v 0.485934 1.822660 0.727252
v 0.348695 -1.822660 0.841824
v 0.334718 1.822660 0.808080
v 0.177763 -1.822660 0.893676
v 0.170638 1.822660 0.857853
v -0.000000 -1.822660 0.911184
v -0.000000 1.822660 0.874659
v -0.177763 -1.822660 0.893676
v -0.170637 1.822660 0.857853
v -0.348695 -1.822660 0.841824
v -0.334718 1.822660 0.808080
v -0.506227 -1.822660 0.757622
v -0.485935 1.822660 0.727252
v -0.644304 -1.822660 0.644304
v -0.618477 1.822660 0.618477
v -0.757622 -1.822660 0.506227
v -0.727252 1.822660 0.485935
v -0.841824 -1.822660 0.348695
v -0.808080 1.822660 0.334718
v -0.893676 -1.822660 0.177763
v -0.857853 1.822660 0.170638
v -0.911184 -1.822660 -0.000000
v -0.874659 1.822660 -0.000000
v -0.893676 -1.822660 -0.177763
v -0.857853 1.822660 -0.170638
v -0.841824 -1.822660 -0.348695
v -0.808079 1.822660 -0.334718
v -0.757622 -1.822660 -0.506226
v -0.727252 1.822660 -0.485934
v -0.644304 -1.822660 -0.644304
v -0.618477 1.822660 -0.618477
v -0.506227 -1.822660 -0.757622
v -0.485935 1.822660 -0.727252
v -0.348695 -1.822660 -0.841824
v -0.334718 1.822660 -0.808080
v -0.177763 -1.822660 -0.893676
v -0.170637 1.822660 -0.857853
v 0.000000 1.605520 -1.000000
v 0.195090 1.605520 -0.980785
v 0.382683 1.605520 -0.923880
v 0.555570 1.605520 -0.831470
v 0.707107 1.605520 -0.707107
v 0.831470 1.605520 -0.555570
v 0.923880 1.605520 -0.382683
v 0.980785 1.605520 -0.195090
v 1.000000 1.605520 0.000000
v 0.980785 1.605520 0.195090
v 0.923880 1.605520 0.382683
v 0.831470 1.605520 0.555570
v 0.707107 1.605520 0.707107
v 0.555570 1.605520 0.831470
v 0.382683 1.605520 0.923880
v 0.195090 1.605520 0.980785
v -0.000000 1.605520 1.000000
v -0.195090 1.605520 0.980785
v -0.382683 1.605520 0.923880
v -0.555570 1.605520 0.831470
v -0.707107 1.605520 0.707107
v -0.831469 1.605520 0.555570
v -0.923880 1.605520 0.382684
v -0.980785 1.605520 0.195090
v -1.000000 1.605520 -0.000000
v -0.980785 1.605520 -0.195090
v -0.923879 1.605520 -0.382684
v -0.831470 1.605520 -0.555570
v -0.707107 1.605520 -0.707107
v -0.555570 1.605520 -0.831470
v -0.382683 1.605520 -0.923880
v -0.195090 1.605520 -0.980785
v 0.195090 -1.671610 -0.980785
v 0.382683 -1.671610 -0.923880
v 0.555570 -1.671610 -0.831470
v 0.707107 -1.671610 -0.707107
v 0.831470 -1.671610 -0.555570
v 0.923880 -1.671610 -0.382683
v 0.980785 -1.671610 -0.195090
v 1.000000 -1.671610 0.000000
v 0.980785 -1.671610 0.195090
v 0.923880 -1.671610 0.382683
v 0.831470 -1.671610 0.555570
v 0.707107 -1.671610 0.707107
v 0.555570 -1.671610 0.831470
v 0.382683 -1.671610 0.923880
v 0.195090 -1.671610 0.980785
v -0.000000 -1.671610 1.000000
v -0.195090 -1.671610 0.980785
v -0.382683 -1.671610 0.923880
v -0.555570 -1.671610 0.831470
v -0.707107 -1.671610 0.707107
v -0.831469 -1.671610 0.555570
v -0.923880 -1.671610 0.382684
v -0.980785 -1.671610 0.195090
v -1.000000 -1.671610 -0.000000
v -0.980785 -1.671610 -0.195090
v -0.923879 -1.671610 -0.382684
v -0.831470 -1.671610 -0.555570
v -0.707107 -1.671610 -0.707107
v -0.555570 -1.671610 -0.831470
v -0.382683 -1.671610 -0.923880
v -0.195090 -1.671610 -0.980785
v 0.000000 -1.671610 -1.000000
v 0.000000 1.748019 -0.906254
v 0.176801 1.748019 -0.888840
v 0.346808 1.748019 -0.837269
v 0.503487 1.748019 -0.753522
v 0.640818 1.748019 -0.640818
v 0.753522 1.748019 -0.503487
v 0.837269 1.748019 -0.346808
v 0.888840 1.748019 -0.176801
v 0.906254 1.748019 0.000000
v 0.888840 1.748019 0.176801
v 0.837269 1.748019 0.346808
v 0.753522 1.748019 0.503487
v 0.640818 1.748019 0.640818
v 0.503487 1.748019 0.753522
v 0.346808 1.748019 0.837269
v 0.176801 1.748019 0.888840
v -0.000000 1.748019 0.906254
v -0.176801 1.748019 0.888840
v -0.346808 1.748019 0.837269
v -0.503487 1.748019 0.753522
v -0.640818 1.748019 0.640818
v -0.753522 1.748019 0.503488
v -0.837269 1.748019 0.346808
v -0.888840 1.748019 0.176801
v -0.906254 1.748019 -0.000000
v -0.888840 1.748019 -0.176801
v -0.837269 1.748019 -0.346808
v -0.753522 1.748019 -0.503487
v -0.640818 1.748019 -0.640818
v -0.503487 1.748019 -0.753522
v -0.346808 1.748019 -0.837269
v -0.176801 1.748019 -0.888840
vt 1.000000 0.989762
vt 1.000000 1.000000
vt 0.968750 1.000000
vt 0.968750 0.989762
vt 0.937500 1.000000
vt 0.937500 0.989762
vt 0.906250 1.000000
vt 0.906250 0.989762
vt 0.875000 1.000000
vt 0.875000 0.989762
vt 0.843750 1.000000
vt 0.843750 0.989762
vt 0.812500 1.000000
vt 0.812500 0.989762
vt 0.781250 1.000000
vt 0.781250 0.989762
vt 0.750000 1.000000
vt 0.750000 0.989762
vt 0.718750 1.000000
vt 0.718750 0.989762
vt 0.687500 1.000000
vt 0.687500 0.989762
vt 0.656250 1.000000
vt 0.656250 0.989762
vt 0.625000 1.000000
vt 0.625000 0.989762
vt 0.593750 1.000000
vt 0.593750 0.989762
vt 0.562500 1.000000
vt 0.562500 0.989762
vt 0.531250 1.000000
vt 0.531250 0.989762
vt 0.500000 1.000000
vt 0.500000 0.989762
vt 0.468750 1.000000
vt 0.468750 0.989762
vt 0.437500 1.000000
vt 0.437500 0.989762
vt 0.406250 1.000000
vt 0.406250 0.989762
vt 0.375000 1.000000
vt 0.375000 0.989762
vt 0.343750 1.000000
vt 0.343750 0.989762
vt 0.312500 1.000000
vt 0.312500 0.989762
vt 0.281250 1.000000
vt 0.281250 0.989762
vt 0.250000 1.000000
vt 0.250000 0.989762
vt 0.218750 1.000000
vt 0.218750 0.989762
vt 0.187500 1.000000
vt 0.187500 0.989762
vt 0.156250 1.000000
vt 0.156250 0.989762
vt 0.125000 1.000000
vt 0.125000 0.989762
vt 0.093750 1.000000
vt 0.093750 0.989762
vt 0.062500 1.000000
vt 0.062500 0.989762
vt 0.296822 0.485388
vt 0.250000 0.490000
vt 0.203178 0.485388
vt 0.158156 0.471731
vt 0.116663 0.449553
vt 0.080294 0.419706
vt 0.050447 0.383337
vt 0.028269 0.341844
vt 0.014612 0.296822
vt 0.010000 0.250000
vt 0.014612 0.203178
vt 0.028269 0.158156
vt 0.050447 0.116663
vt 0.080294 0.080294
vt 0.116663 0.050447
vt 0.158156 0.028269
vt 0.203178 0.014612
vt 0.250000 0.010000
vt 0.296822 0.014612
vt 0.341844 0.028269
vt 0.383337 0.050447
vt 0.419706 0.080294
vt 0.449553 0.116663
vt 0.471731 0.158156
vt 0.485388 0.203178
vt 0.490000 0.250000
vt 0.485388 0.296822
vt 0.471731 0.341844
vt 0.449553 0.383337
vt 0.419706 0.419706
vt 0.383337 0.449553
vt 0.341844 0.471731
vt 0.031250 1.000000
vt 0.031250 0.989762
vt 0.000000 1.000000
vt 0.000000 0.989762
vt 0.750000 0.490000
vt 0.796822 0.485388
vt 0.841844 0.471731
vt 0.883337 0.449553
vt 0.919706 0.419706
vt 0.949553 0.383337
vt 0.971731 0.341844
vt 0.985388 0.296822
vt 0.990000 0.250000
vt 0.985388 0.203178
vt 0.971731 0.158156
vt 0.949553 0.116663
vt 0.919706 0.080294
vt 0.883337 0.050447
vt 0.841844 0.028269
vt 0.796822 0.014612
vt 0.750000 0.010000
vt 0.703178 0.014612
vt 0.658156 0.028269
vt 0.616663 0.050447
vt 0.580294 0.080294
vt 0.550447 0.116663
vt 0.528269 0.158156
vt 0.514612 0.203178
vt 0.510000 0.250000
vt 0.514612 0.296822
vt 0.528269 0.341844
vt 0.550447 0.383337
vt 0.580294 0.419706
vt 0.616663 0.449553
vt 0.658156 0.471731
vt 0.703178 0.485388
vt 0.031250 0.520718
vt 0.031250 0.970217
vt 0.000000 0.970217
vt 0.000000 0.520718
vt 0.062500 0.520718
vt 0.062500 0.970217
vt 0.093750 0.520718
vt 0.093750 0.970217
vt 0.125000 0.520718
vt 0.125000 0.970217
vt 0.156250 0.520718
vt 0.156250 0.970217
vt 0.187500 0.520718
vt 0.187500 0.970217
vt 0.218750 0.520718
vt 0.218750 0.970217
vt 0.250000 0.520718
vt 0.250000 0.970217
vt 0.281250 0.520718
vt 0.281250 0.970217
vt 0.312500 0.520718
vt 0.312500 0.970217
vt 0.343750 0.520718
vt 0.343750 0.970217
vt 0.375000 0.520718
vt 0.375000 0.970217
vt 0.406250 0.520718
vt 0.406250 0.970217
vt 0.437500 0.520718
vt 0.437500 0.970217
vt 0.468750 0.520718
vt 0.468750 0.970217
vt 0.500000 0.520718
vt 0.500000 0.970217
vt 0.531250 0.520718
vt 0.531250 0.970217
vt 0.562500 0.520718
vt 0.562500 0.970217
vt 0.593750 0.520718
vt 0.593750 0.970217
vt 0.625000 0.520718
vt 0.625000 0.970217
vt 0.656250 0.520718
vt 0.656250 0.970217
vt 0.687500 0.520718
vt 0.687500 0.970217
vt 0.718750 0.520718
vt 0.718750 0.970217
vt 0.750000 0.520718
vt 0.750000 0.970217
vt 0.781250 0.520718
vt 0.781250 0.970217
vt 0.812500 0.520718
vt 0.812500 0.970217
vt 0.843750 0.520718
vt 0.843750 0.970217
vt 0.875000 0.520718
vt 0.875000 0.970217
vt 0.906250 0.520718
vt 0.906250 0.970217
vt 0.937500 0.520718
vt 0.937500 0.970217
vt 0.968750 0.520718
vt 0.968750 0.970217
vt 1.000000 0.520718
vt 1.000000 0.970217
vt 1.000000 0.500000
vt 0.968750 0.500000
vt 0.937500 0.500000
vt 0.906250 0.500000
vt 0.875000 0.500000
vt 0.843750 0.500000
vt 0.812500 0.500000
vt 0.781250 0.500000
vt 0.750000 0.500000
vt 0.718750 0.500000
vt 0.687500 0.500000
vt 0.656250 0.500000
vt 0.625000 0.500000
vt 0.593750 0.500000
vt 0.562500 0.500000
vt 0.531250 0.500000
vt 0.500000 0.500000
vt 0.468750 0.500000
vt 0.437500 0.500000
vt 0.406250 0.500000
vt 0.375000 0.500000
vt 0.343750 0.500000
vt 0.312500 0.500000
vt 0.281250 0.500000
vt 0.250000 0.500000
vt 0.218750 0.500000
vt 0.187500 0.500000
vt 0.156250 0.500000
vt 0.125000 0.500000
vt 0.093750 0.500000
vt 0.062500 0.500000
vt 0.031250 0.500000
vt 0.000000 0.500000
vn 0.0903 0.3882 -0.9171
vn 0.2675 0.3882 -0.8819
vn 0.4344 0.3882 -0.8128
vn 0.5846 0.3882 -0.7124
vn 0.7124 0.3882 -0.5846
vn 0.8128 0.3882 -0.4344
vn 0.8819 0.3882 -0.2675
vn 0.9171 0.3882 -0.0903
vn 0.9171 0.3882 0.0903
vn 0.8819 0.3882 0.2675
vn 0.8128 0.3882 0.4344
vn 0.7124 0.3882 0.5846
vn 0.5846 0.3882 0.7124
vn 0.4344 0.3882 0.8128
vn 0.2675 0.3882 0.8819
vn 0.0903 0.3882 0.9171
vn -0.0903 0.3882 0.9171
vn -0.2675 0.3882 0.8819
vn -0.4344 0.3882 0.8128
vn -0.5846 0.3882 0.7124
vn -0.7124 0.3882 0.5846
vn -0.8128 0.3882 0.4344
vn -0.8819 0.3882 0.2675
vn -0.9171 0.3882 0.0903
vn -0.9171 0.3882 -0.0903
vn -0.8819 0.3882 -0.2675
vn -0.8128 0.3882 -0.4344
vn -0.7124 0.3882 -0.5846
vn -0.5846 0.3882 -0.7124
vn -0.4344 0.3882 -0.8128
vn 0.0000 1.0000 -0.0000
vn -0.2675 0.3882 -0.8819
vn -0.0903 0.3882 -0.9171
vn 0.0000 -1.0000 -0.0000
vn -0.0980 0.0000 -0.9952
vn -0.2903 0.0000 -0.9569
vn -0.4714 0.0000 -0.8819
vn -0.6344 0.0000 -0.7730
vn -0.7730 0.0000 -0.6344
vn -0.8819 0.0000 -0.4714
vn -0.9569 0.0000 -0.2903
vn -0.9952 0.0000 -0.0980
vn -0.9952 0.0000 0.0980
vn -0.9569 0.0000 0.2903
vn -0.8819 0.0000 0.4714
vn -0.7730 0.0000 0.6344
vn -0.6344 0.0000 0.7730
vn -0.4714 0.0000 0.8819
vn -0.2903 0.0000 0.9569
vn -0.0980 0.0000 0.9952
vn 0.0980 0.0000 0.9952
vn 0.2903 0.0000 0.9569
vn 0.4714 0.0000 0.8819
vn 0.6344 0.0000 0.7730
vn 0.7730 0.0000 0.6344
vn 0.8819 0.0000 0.4714
vn 0.9569 0.0000 0.2903
vn 0.9952 0.0000 0.0980
vn 0.9952 0.0000 -0.0980
vn 0.9569 0.0000 -0.2903
vn 0.8819 0.0000 -0.4714
vn 0.7730 0.0000 -0.6344
vn 0.6344 0.0000 -0.7730
vn 0.4714 0.0000 -0.8819
vn 0.2903 0.0000 -0.9569
vn 0.0980 0.0000 -0.9952
vn 0.0846 -0.5050 -0.8589
vn 0.2505 -0.5050 -0.8259
vn 0.4069 -0.5050 -0.7612
vn 0.5475 -0.5050 -0.6672
vn 0.6672 -0.5050 -0.5475
vn 0.7612 -0.5050 -0.4069
vn 0.8259 -0.5050 -0.2505
vn 0.8589 -0.5050 -0.0846
vn 0.8589 -0.5050 0.0846
vn 0.8259 -0.5050 0.2505
vn 0.7612 -0.5050 0.4069
vn 0.6672 -0.5050 0.5475
vn 0.5475 -0.5050 0.6672
vn 0.4069 -0.5050 0.7612
vn 0.2505 -0.5050 0.8259
vn 0.0846 -0.5050 0.8589
vn -0.0846 -0.5050 0.8589
vn -0.2505 -0.5050 0.8259
vn -0.4069 -0.5050 0.7612
vn -0.5475 -0.5050 0.6672
vn -0.6672 -0.5050 0.5475
vn -0.7612 -0.5050 0.4069
vn -0.8259 -0.5050 0.2505
vn -0.8589 -0.5050 0.0846
vn -0.8589 -0.5050 -0.0846
vn -0.8259 -0.5050 -0.2505
vn -0.7612 -0.5050 -0.4069
vn -0.6672 -0.5050 -0.5475
vn -0.5475 -0.5050 -0.6672
vn -0.4069 -0.5050 -0.7612
vn -0.2505 -0.5050 -0.8259
vn -0.0846 -0.5050 -0.8589
vn -0.0820 0.5478 -0.8326
vn -0.2429 0.5478 -0.8006
vn -0.3944 0.5478 -0.7378
vn -0.5308 0.5478 -0.6467
vn -0.6467 0.5478 -0.5308
vn -0.7378 0.5478 -0.3944
vn -0.8006 0.5478 -0.2429
vn -0.8326 0.5478 -0.0820
vn -0.8326 0.5478 0.0820
vn -0.8006 0.5478 0.2429
vn -0.7378 0.5478 0.3944
vn -0.6467 0.5478 0.5308
vn -0.5308 0.5478 0.6467
vn -0.3944 0.5478 0.7378
vn -0.2429 0.5478 0.8006
vn -0.0820 0.5478 0.8326
vn 0.0820 0.5478 0.8326
vn 0.2429 0.5478 0.8006
vn 0.3944 0.5478 0.7378
vn 0.5308 0.5478 0.6467
vn 0.6467 0.5478 0.5308
vn 0.7378 0.5478 0.3944
vn 0.8006 0.5478 0.2429
vn 0.8326 0.5478 0.0820
vn 0.8326 0.5478 -0.0820
vn 0.8006 0.5478 -0.2429
vn 0.7378 0.5478 -0.3944
vn 0.6467 0.5478 -0.5308
vn 0.5308 0.5478 -0.6467
vn 0.3944 0.5478 -0.7378
vn 0.2429 0.5478 -0.8006
vn 0.0820 0.5478 -0.8326
usemtl None
s off
f 129/1/1 2/2/1 4/3/1 130/4/1
f 130/4/2 4/3/2 6/5/2 131/6/2
f 131/6/3 6/5/3 8/7/3 132/8/3
f 132/8/4 8/7/4 10/9/4 133/10/4
f 133/10/5 10/9/5 12/11/5 134/12/5
f 134/12/6 12/11/6 14/13/6 135/14/6
f 135/14/7 14/13/7 16/15/7 136/16/7
f 136/16/8 16/15/8 18/17/8 137/18/8
f 137/18/9 18/17/9 20/19/9 138/20/9
f 138/20/10 20/19/10 22/21/10 139/22/10
f 139/22/11 22/21/11 24/23/11 140/24/11
f 140/24/12 24/23/12 26/25/12 141/26/12
f 141/26/13 26/25/13 28/27/13 142/28/13
f 142/28/14 28/27/14 30/29/14 143/30/14
f 143/30/15 30/29/15 32/31/15 144/32/15
f 144/32/16 32/31/16 34/33/16 145/34/16
f 145/34/17 34/33/17 36/35/17 146/36/17
f 146/36/18 36/35/18 38/37/18 147/38/18
f 147/38/19 38/37/19 40/39/19 148/40/19
f 148/40/20 40/39/20 42/41/20 149/42/20
f 149/42/21 42/41/21 44/43/21 150/44/21
f 150/44/22 44/43/22 46/45/22 151/46/22
f 151/46/23 46/45/23 48/47/23 152/48/23
f 152/48/24 48/47/24 50/49/24 153/50/24
f 153/50/25 50/49/25 52/51/25 154/52/25
f 154/52/26 52/51/26 54/53/26 155/54/26
f 155/54/27 54/53/27 56/55/27 156/56/27
f 156/56/28 56/55/28 58/57/28 157/58/28
f 157/58/29 58/57/29 60/59/29 158/60/29
f 158/60/30 60/59/30 62/61/30 159/62/30
f 4/63/31 2/64/31 64/65/31 62/66/31 60/67/31 58/68/31 56/69/31 54/70/31 52/71/31 50/72/31 48/73/31 46/74/31 44/75/31 42/76/31 40/77/31 38/78/31 36/79/31 34/80/31 32/81/31 30/82/31 28/83/31 26/84/31 24/85/31 22/86/31 20/87/31 18/88/31 16/89/31 14/90/31 12/91/31 10/92/31 8/93/31 6/94/31
f 159/62/32 62/61/32 64/95/32 160/96/32
f 160/96/33 64/95/33 2/97/33 129/98/33
f 1/99/34 3/100/34 5/101/34 7/102/34 9/103/34 11/104/34 13/105/34 15/106/34 17/107/34 19/108/34 21/109/34 23/110/34 25/111/34 27/112/34 29/113/34 31/114/34 33/115/34 35/116/34 37/117/34 39/118/34 41/119/34 43/120/34 45/121/34 47/122/34 49/123/34 51/124/34 53/125/34 55/126/34 57/127/34 59/128/34 61/129/34 63/130/34
f 127/131/35 96/132/35 65/133/35 128/134/35
f 126/135/36 95/136/36 96/132/36 127/131/36
f 125/137/37 94/138/37 95/136/37 126/135/37
f 124/139/38 93/140/38 94/138/38 125/137/38
f 123/141/39 92/142/39 93/140/39 124/139/39
f 122/143/40 91/144/40 92/142/40 123/141/40
f 121/145/41 90/146/41 91/144/41 122/143/41
f 120/147/42 89/148/42 90/146/42 121/145/42
f 119/149/43 88/150/43 89/148/43 120/147/43
f 118/151/44 87/152/44 88/150/44 119/149/44
f 117/153/45 86/154/45 87/152/45 118/151/45
f 116/155/46 85/156/46 86/154/46 117/153/46
f 115/157/47 84/158/47 85/156/47 116/155/47
f 114/159/48 83/160/48 84/158/48 115/157/48
f 113/161/49 82/162/49 83/160/49 114/159/49
f 112/163/50 81/164/50 82/162/50 113/161/50
f 111/165/51 80/166/51 81/164/51 112/163/51
f 110/167/52 79/168/52 80/166/52 111/165/52
f 109/169/53 78/170/53 79/168/53 110/167/53
f 108/171/54 77/172/54 78/170/54 109/169/54
f 107/173/55 76/174/55 77/172/55 108/171/55
f 106/175/56 75/176/56 76/174/56 107/173/56
f 105/177/57 74/178/57 75/176/57 106/175/57
f 104/179/58 73/180/58 74/178/58 105/177/58
f 103/181/59 72/182/59 73/180/59 104/179/59
f 102/183/60 71/184/60 72/182/60 103/181/60
f 101/185/61 70/186/61 71/184/61 102/183/61
f 100/187/62 69/188/62 70/186/62 101/185/62
f 99/189/63 68/190/63 69/188/63 100/187/63
f 98/191/64 67/192/64 68/190/64 99/189/64
f 97/193/65 66/194/65 67/192/65 98/191/65
f 128/195/66 65/196/66 66/194/66 97/193/66
f 1/197/67 128/195/67 97/193/67 3/198/67
f 3/198/68 97/193/68 98/191/68 5/199/68
f 5/199/69 98/191/69 99/189/69 7/200/69
f 7/200/70 99/189/70 100/187/70 9/201/70
f 9/201/71 100/187/71 101/185/71 11/202/71
f 11/202/72 101/185/72 102/183/72 13/203/72
f 13/203/73 102/183/73 103/181/73 15/204/73
f 15/204/74 103/181/74 104/179/74 17/205/74
f 17/205/75 104/179/75 105/177/75 19/206/75
f 19/206/76 105/177/76 106/175/76 21/207/76
f 21/207/77 106/175/77 107/173/77 23/208/77
f 23/208/78 107/173/78 108/171/78 25/209/78
f 25/209/79 108/171/79 109/169/79 27/210/79
f 27/210/80 109/169/80 110/167/80 29/211/80
f 29/211/81 110/167/81 111/165/81 31/212/81
f 31/212/82 111/165/82 112/163/82 33/213/82
f 33/213/83 112/163/83 113/161/83 35/214/83
f 35/214/84 113/161/84 114/159/84 37/215/84
f 37/215/85 114/159/85 115/157/85 39/216/85
f 39/216/86 115/157/86 116/155/86 41/217/86
f 41/217/87 116/155/87 117/153/87 43/218/87
f 43/218/88 117/153/88 118/151/88 45/219/88
f 45/219/89 118/151/89 119/149/89 47/220/89
f 47/220/90 119/149/90 120/147/90 49/221/90
f 49/221/91 120/147/91 121/145/91 51/222/91
f 51/222/92 121/145/92 122/143/92 53/223/92
f 53/223/93 122/143/93 123/141/93 55/224/93
f 55/224/94 123/141/94 124/139/94 57/225/94
f 57/225/95 124/139/95 125/137/95 59/226/95
f 59/226/96 125/137/96 126/135/96 61/227/96
f 61/227/97 126/135/97 127/131/97 63/228/97
f 63/228/98 127/131/98 128/134/98 1/229/98
f 96/132/99 160/96/99 129/98/99 65/133/99
f 95/136/100 159/62/100 160/96/100 96/132/100
f 94/138/101 158/60/101 159/62/101 95/136/101
f 93/140/102 157/58/102 158/60/102 94/138/102
f 92/142/103 156/56/103 157/58/103 93/140/103
f 91/144/104 155/54/104 156/56/104 92/142/104
f 90/146/105 154/52/105 155/54/105 91/144/105
f 89/148/106 153/50/106 154/52/106 90/146/106
f 88/150/107 152/48/107 153/50/107 89/148/107
f 87/152/108 151/46/108 152/48/108 88/150/108
f 86/154/109 150/44/109 151/46/109 87/152/109
f 85/156/110 149/42/110 150/44/110 86/154/110
f 84/158/111 148/40/111 149/42/111 85/156/111
f 83/160/112 147/38/112 148/40/112 84/158/112
f 82/162/113 146/36/113 147/38/113 83/160/113
f 81/164/114 145/34/114 146/36/114 82/162/114
f 80/166/115 144/32/115 145/34/115 81/164/115
f 79/168/116 143/30/116 144/32/116 80/166/116
f 78/170/117 142/28/117 143/30/117 79/168/117
f 77/172/118 141/26/118 142/28/118 78/170/118
f 76/174/119 140/24/119 141/26/119 77/172/119
f 75/176/120 139/22/120 140/24/120 76/174/120
f 74/178/121 138/20/121 139/22/121 75/176/121
f 73/180/122 137/18/122 138/20/122 74/178/122
f 72/182/123 136/16/123 137/18/123 73/180/123
f 71/184/124 135/14/124 136/16/124 72/182/124
f 70/186/125 134/12/125 135/14/125 71/184/125
f 69/188/126 133/10/126 134/12/126 70/186/126
f 68/190/127 132/8/127 133/10/127 69/188/127
f 67/192/128 131/6/128 132/8/128 68/190/128
f 66/194/129 130/4/129 131/6/129 67/192/129
f 65/196/130 129/1/130 130/4/130 66/194/130
